+ filenameToUse=/home/horvathandras/vatic/vatic/public/videouploads/DJI_0680_sok_ragas_vaskut_20180608_napos_napraforgo_T3.avi
+ filenameNoDot=DJI_0680_sok_ragas_vaskut_20180608_napos_napraforgo_T3
+ FullUploadPath=/home/horvathandras/vatic/vatic/public/videouploads/DJI_0680_sok_ragas_vaskut_20180608_napos_napraforgo_T3.avi
+ VideoDataDir=/home/horvathandras/vatic/vatic/videos
+ AvailableObjectTypes='PozitívROI NegatívROI Túrás ~Friss ~1-2Hetes ~Régebbi ~Egyéb1 ~Egyéb2 ~Egyéb3 Rágás ~Friss ~1-2Hetes ~Régebbi ~Egyéb1 ~Egyéb2 ~Egyéb3 Törés ~Friss ~1-2Hetes ~Régebbi ~Egyéb1 ~Egyéb2 ~Egyéb3 Taposás ~Friss ~1-2Hetes ~Régebbi ~Egyéb1 ~Egyéb2 ~Egyéb3 EgészségesNövény Egyéb1 Egyéb2 Egyéb3 Egyéb4 Egyéb5 Bizonytalan Művelőút Gktaposás Vetőhiba Széldöntés Jégkár Belvíz Aszály Erózió EgyszikűGyom KétszikűGyom EgyébNövvédelmiPR'
++ dirname /home/horvathandras/vatic/vatic/vatic_publisher.sh
+ cd /home/horvathandras/vatic/vatic
+ touch /home/horvathandras/vatic/vatic/public/videouploads/DJI_0680_sok_ragas_vaskut_20180608_napos_napraforgo_T3.avi
+ chmod 744 /home/horvathandras/vatic/vatic/public/videouploads/DJI_0680_sok_ragas_vaskut_20180608_napos_napraforgo_T3.avi
+ mkdir /home/horvathandras/vatic/vatic/videos/DJI_0680_sok_ragas_vaskut_20180608_napos_napraforgo_T3
+ turkic extract /home/horvathandras/vatic/vatic/public/videouploads/DJI_0680_sok_ragas_vaskut_20180608_napos_napraforgo_T3.avi /home/horvathandras/vatic/vatic/videos/DJI_0680_sok_ragas_vaskut_20180608_napos_napraforgo_T3 --no-resize
ffmpeg version 2.8.14-0ubuntu0.16.04.1 Copyright (c) 2000-2018 the FFmpeg developers
  built with gcc 5.4.0 (Ubuntu 5.4.0-6ubuntu1~16.04.9) 20160609
  configuration: --prefix=/usr --extra-version=0ubuntu0.16.04.1 --build-suffix=-ffmpeg --toolchain=hardened --libdir=/usr/lib/x86_64-linux-gnu --incdir=/usr/include/x86_64-linux-gnu --cc=cc --cxx=g++ --enable-gpl --enable-shared --disable-stripping --disable-decoder=libopenjpeg --disable-decoder=libschroedinger --enable-avresample --enable-avisynth --enable-gnutls --enable-ladspa --enable-libass --enable-libbluray --enable-libbs2b --enable-libcaca --enable-libcdio --enable-libflite --enable-libfontconfig --enable-libfreetype --enable-libfribidi --enable-libgme --enable-libgsm --enable-libmodplug --enable-libmp3lame --enable-libopenjpeg --enable-libopus --enable-libpulse --enable-librtmp --enable-libschroedinger --enable-libshine --enable-libsnappy --enable-libsoxr --enable-libspeex --enable-libssh --enable-libtheora --enable-libtwolame --enable-libvorbis --enable-libvpx --enable-libwavpack --enable-libwebp --enable-libx265 --enable-libxvid --enable-libzvbi --enable-openal --enable-opengl --enable-x11grab --enable-libdc1394 --enable-libiec61883 --enable-libzmq --enable-frei0r --enable-libx264 --enable-libopencv
  libavutil      54. 31.100 / 54. 31.100
  libavcodec     56. 60.100 / 56. 60.100
  libavformat    56. 40.101 / 56. 40.101
  libavdevice    56.  4.100 / 56.  4.100
  libavfilter     5. 40.101 /  5. 40.101
  libavresample   2.  1.  0 /  2.  1.  0
  libswscale      3.  1.101 /  3.  1.101
  libswresample   1.  2.101 /  1.  2.101
  libpostproc    53.  3.100 / 53.  3.100
Input #0, mov,mp4,m4a,3gp,3g2,mj2, from '/home/horvathandras/vatic/vatic/public/videouploads/DJI_0680_sok_ragas_vaskut_20180608_napos_napraforgo_T3.avi':
  Metadata:
    major_brand     : qt  
    minor_version   : 537986816
    compatible_brands: qt  
    creation_time   : 2018-06-08 08:37:09
    location        : +46.073455+18.994442+30.500
    location-{    : +46.073455+18.994442+30.500
    comment         : DE=None, Mode=P, DSW=0001
  Duration: 00:00:17.40, start: 0.000000, bitrate: 100958 kb/s
    Stream #0:0(eng): Video: h264 (High) (avc1 / 0x31637661), yuv420p(tv, bt709), 4096x2160 [SAR 1:1 DAR 256:135], 100723 kb/s, 50 fps, 50 tbr, 50k tbn, 100 tbc (default)
    Metadata:
      creation_time   : 2018-06-08 08:37:09
      handler_name    : DJI.AVC
      encoder         : AVC encoder
    Stream #0:1(eng): Data: none (priv / 0x76697270), 222 kb/s
    Metadata:
      creation_time   : 2018-06-08 08:37:09
      handler_name    : DJI.Meta
Please use -b:a or -b:v, -b is ambiguous
[swscaler @ 0x21d0d80] deprecated pixel format used, make sure you did set range correctly
Output #0, image2, to '/tmp/pyvision-ffmpeg-966095535/%d.jpg':
  Metadata:
    major_brand     : qt  
    minor_version   : 537986816
    compatible_brands: qt  
    comment         : DE=None, Mode=P, DSW=0001
    location        : +46.073455+18.994442+30.500
    location-{    : +46.073455+18.994442+30.500
    encoder         : Lavf56.40.101
    Stream #0:0(eng): Video: mjpeg, yuvj420p(pc), 4096x2160 [SAR 1:1 DAR 256:135], q=2-31, 10000 kb/s, 50 fps, 50 tbn, 50 tbc (default)
    Metadata:
      creation_time   : 2018-06-08 08:37:09
      handler_name    : DJI.AVC
      encoder         : Lavc56.60.100 mjpeg
Stream mapping:
  Stream #0:0 -> #0:0 (h264 (native) -> mjpeg (native))
Press [q] to stop, [?] for help
frame=    1 fps=0.0 q=18.3 size=N/A time=00:00:00.02 bitrate=N/A    frame=    4 fps=2.6 q=24.8 size=N/A time=00:00:00.08 bitrate=N/A    frame=    7 fps=3.4 q=24.8 size=N/A time=00:00:00.14 bitrate=N/A    frame=   10 fps=3.8 q=24.8 size=N/A time=00:00:00.20 bitrate=N/A    frame=   13 fps=4.1 q=24.8 size=N/A time=00:00:00.26 bitrate=N/A    frame=   17 fps=4.5 q=24.8 size=N/A time=00:00:00.34 bitrate=N/A    frame=   20 fps=4.7 q=24.8 size=N/A time=00:00:00.40 bitrate=N/A    frame=   23 fps=4.8 q=24.8 size=N/A time=00:00:00.46 bitrate=N/A    frame=   27 fps=5.0 q=24.8 size=N/A time=00:00:00.54 bitrate=N/A    frame=   31 fps=4.9 q=24.8 size=N/A time=00:00:00.62 bitrate=N/A    frame=   35 fps=5.1 q=24.8 size=N/A time=00:00:00.70 bitrate=N/A    frame=   38 fps=5.2 q=24.8 size=N/A time=00:00:00.76 bitrate=N/A    frame=   41 fps=5.2 q=24.8 size=N/A time=00:00:00.82 bitrate=N/A    frame=   45 fps=5.3 q=24.8 size=N/A time=00:00:00.90 bitrate=N/A    frame=   49 fps=5.4 q=24.8 size=N/A time=00:00:00.98 bitrate=N/A    frame=   53 fps=5.4 q=24.8 size=N/A time=00:00:01.06 bitrate=N/A    frame=   57 fps=5.5 q=24.8 size=N/A time=00:00:01.14 bitrate=N/A    frame=   60 fps=5.5 q=24.8 size=N/A time=00:00:01.20 bitrate=N/A    frame=   63 fps=5.5 q=24.8 size=N/A time=00:00:01.26 bitrate=N/A    frame=   67 fps=5.5 q=24.8 size=N/A time=00:00:01.34 bitrate=N/A    frame=   70 fps=5.6 q=24.8 size=N/A time=00:00:01.40 bitrate=N/A    frame=   73 fps=5.6 q=24.8 size=N/A time=00:00:01.46 bitrate=N/A    frame=   77 fps=5.6 q=24.8 size=N/A time=00:00:01.54 bitrate=N/A    frame=   81 fps=5.7 q=24.8 size=N/A time=00:00:01.62 bitrate=N/A    frame=   84 fps=5.7 q=24.8 size=N/A time=00:00:01.68 bitrate=N/A    frame=   87 fps=5.6 q=24.8 size=N/A time=00:00:01.74 bitrate=N/A    frame=   90 fps=5.6 q=24.8 size=N/A time=00:00:01.80 bitrate=N/A    frame=   95 fps=5.7 q=24.8 size=N/A time=00:00:01.90 bitrate=N/A    frame=   98 fps=5.7 q=24.8 size=N/A time=00:00:01.96 bitrate=N/A    frame=  103 fps=5.7 q=24.8 size=N/A time=00:00:02.06 bitrate=N/A    frame=  106 fps=5.7 q=24.8 size=N/A time=00:00:02.12 bitrate=N/A    frame=  110 fps=5.8 q=24.8 size=N/A time=00:00:02.20 bitrate=N/A    frame=  114 fps=5.8 q=24.8 size=N/A time=00:00:02.28 bitrate=N/A    frame=  118 fps=5.8 q=24.8 size=N/A time=00:00:02.36 bitrate=N/A    frame=  122 fps=5.8 q=24.8 size=N/A time=00:00:02.44 bitrate=N/A    frame=  126 fps=5.9 q=24.8 size=N/A time=00:00:02.52 bitrate=N/A    frame=  130 fps=5.9 q=24.8 size=N/A time=00:00:02.60 bitrate=N/A    frame=  134 fps=5.9 q=24.8 size=N/A time=00:00:02.68 bitrate=N/A    frame=  137 fps=5.9 q=24.8 size=N/A time=00:00:02.74 bitrate=N/A    frame=  141 fps=5.9 q=24.8 size=N/A time=00:00:02.82 bitrate=N/A    frame=  144 fps=5.9 q=24.8 size=N/A time=00:00:02.88 bitrate=N/A    frame=  148 fps=5.9 q=24.8 size=N/A time=00:00:02.96 bitrate=N/A    frame=  151 fps=5.9 q=24.8 size=N/A time=00:00:03.02 bitrate=N/A    frame=  154 fps=5.9 q=24.8 size=N/A time=00:00:03.08 bitrate=N/A    frame=  158 fps=5.9 q=24.8 size=N/A time=00:00:03.16 bitrate=N/A    frame=  162 fps=5.9 q=24.8 size=N/A time=00:00:03.24 bitrate=N/A    frame=  166 fps=5.9 q=24.8 size=N/A time=00:00:03.32 bitrate=N/A    frame=  170 fps=6.0 q=24.8 size=N/A time=00:00:03.40 bitrate=N/A    frame=  174 fps=6.0 q=24.8 size=N/A time=00:00:03.48 bitrate=N/A    frame=  177 fps=6.0 q=24.8 size=N/A time=00:00:03.54 bitrate=N/A    frame=  180 fps=6.0 q=24.8 size=N/A time=00:00:03.60 bitrate=N/A    frame=  183 fps=6.0 q=24.8 size=N/A time=00:00:03.66 bitrate=N/A    frame=  187 fps=6.0 q=24.8 size=N/A time=00:00:03.74 bitrate=N/A    frame=  191 fps=6.0 q=24.8 size=N/A time=00:00:03.82 bitrate=N/A    frame=  196 fps=6.0 q=24.8 size=N/A time=00:00:03.92 bitrate=N/A    frame=  200 fps=6.0 q=24.8 size=N/A time=00:00:04.00 bitrate=N/A    frame=  204 fps=6.0 q=24.8 size=N/A time=00:00:04.08 bitrate=N/A    frame=  208 fps=6.0 q=24.8 size=N/A time=00:00:04.16 bitrate=N/A    frame=  211 fps=6.0 q=24.8 size=N/A time=00:00:04.22 bitrate=N/A    frame=  215 fps=6.1 q=24.8 size=N/A time=00:00:04.30 bitrate=N/A    frame=  219 fps=6.1 q=24.8 size=N/A time=00:00:04.38 bitrate=N/A    frame=  223 fps=6.1 q=24.8 size=N/A time=00:00:04.46 bitrate=N/A    frame=  227 fps=6.1 q=24.8 size=N/A time=00:00:04.54 bitrate=N/A    frame=  230 fps=6.1 q=24.8 size=N/A time=00:00:04.60 bitrate=N/A    frame=  234 fps=6.1 q=24.8 size=N/A time=00:00:04.68 bitrate=N/A    frame=  238 fps=6.1 q=24.8 size=N/A time=00:00:04.76 bitrate=N/A    frame=  241 fps=6.1 q=24.8 size=N/A time=00:00:04.82 bitrate=N/A    frame=  244 fps=6.1 q=24.8 size=N/A time=00:00:04.88 bitrate=N/A    frame=  247 fps=6.1 q=24.8 size=N/A time=00:00:04.94 bitrate=N/A    frame=  251 fps=6.1 q=24.8 size=N/A time=00:00:05.02 bitrate=N/A    frame=  255 fps=6.1 q=24.8 size=N/A time=00:00:05.10 bitrate=N/A    frame=  259 fps=6.1 q=24.8 size=N/A time=00:00:05.18 bitrate=N/A    frame=  263 fps=6.1 q=24.8 size=N/A time=00:00:05.26 bitrate=N/A    frame=  267 fps=6.1 q=24.8 size=N/A time=00:00:05.34 bitrate=N/A    frame=  270 fps=6.1 q=24.8 size=N/A time=00:00:05.40 bitrate=N/A    frame=  273 fps=6.1 q=24.8 size=N/A time=00:00:05.46 bitrate=N/A    frame=  276 fps=6.1 q=24.8 size=N/A time=00:00:05.52 bitrate=N/A    frame=  280 fps=6.1 q=24.8 size=N/A time=00:00:05.60 bitrate=N/A    frame=  284 fps=6.1 q=24.8 size=N/A time=00:00:05.68 bitrate=N/A    frame=  287 fps=6.1 q=24.8 size=N/A time=00:00:05.74 bitrate=N/A    frame=  291 fps=6.1 q=24.8 size=N/A time=00:00:05.82 bitrate=N/A    frame=  295 fps=6.1 q=24.8 size=N/A time=00:00:05.90 bitrate=N/A    frame=  298 fps=6.1 q=24.8 size=N/A time=00:00:05.96 bitrate=N/A    frame=  301 fps=6.1 q=24.8 size=N/A time=00:00:06.02 bitrate=N/A    frame=  304 fps=6.1 q=24.8 size=N/A time=00:00:06.08 bitrate=N/A    frame=  308 fps=6.1 q=24.8 size=N/A time=00:00:06.16 bitrate=N/A    frame=  312 fps=6.1 q=24.8 size=N/A time=00:00:06.24 bitrate=N/A    frame=  315 fps=6.1 q=24.8 size=N/A time=00:00:06.30 bitrate=N/A    frame=  319 fps=6.1 q=24.8 size=N/A time=00:00:06.38 bitrate=N/A    frame=  322 fps=6.1 q=24.8 size=N/A time=00:00:06.44 bitrate=N/A    frame=  326 fps=6.1 q=24.8 size=N/A time=00:00:06.52 bitrate=N/A    frame=  330 fps=6.1 q=24.8 size=N/A time=00:00:06.60 bitrate=N/A    frame=  333 fps=6.1 q=24.8 size=N/A time=00:00:06.66 bitrate=N/A    frame=  337 fps=6.1 q=24.8 size=N/A time=00:00:06.74 bitrate=N/A    frame=  341 fps=6.1 q=24.8 size=N/A time=00:00:06.82 bitrate=N/A    frame=  344 fps=6.1 q=24.8 size=N/A time=00:00:06.88 bitrate=N/A    frame=  348 fps=6.1 q=24.8 size=N/A time=00:00:06.96 bitrate=N/A    frame=  352 fps=6.1 q=24.8 size=N/A time=00:00:07.04 bitrate=N/A    frame=  355 fps=6.1 q=24.8 size=N/A time=00:00:07.10 bitrate=N/A    frame=  358 fps=6.1 q=24.8 size=N/A time=00:00:07.16 bitrate=N/A    frame=  362 fps=6.1 q=24.8 size=N/A time=00:00:07.24 bitrate=N/A    frame=  366 fps=6.1 q=24.8 size=N/A time=00:00:07.32 bitrate=N/A    frame=  369 fps=6.1 q=24.8 size=N/A time=00:00:07.38 bitrate=N/A    frame=  373 fps=6.1 q=24.8 size=N/A time=00:00:07.46 bitrate=N/A    frame=  377 fps=6.1 q=24.8 size=N/A time=00:00:07.54 bitrate=N/A    frame=  381 fps=6.1 q=24.8 size=N/A time=00:00:07.62 bitrate=N/A    frame=  385 fps=6.1 q=24.8 size=N/A time=00:00:07.70 bitrate=N/A    frame=  388 fps=6.1 q=24.8 size=N/A time=00:00:07.76 bitrate=N/A    frame=  391 fps=6.1 q=24.8 size=N/A time=00:00:07.82 bitrate=N/A    frame=  395 fps=6.1 q=24.8 size=N/A time=00:00:07.90 bitrate=N/A    frame=  399 fps=6.1 q=24.8 size=N/A time=00:00:07.98 bitrate=N/A    frame=  402 fps=6.1 q=24.8 size=N/A time=00:00:08.04 bitrate=N/A    frame=  406 fps=6.1 q=24.8 size=N/A time=00:00:08.12 bitrate=N/A    frame=  409 fps=6.1 q=24.8 size=N/A time=00:00:08.18 bitrate=N/A    frame=  412 fps=6.1 q=24.8 size=N/A time=00:00:08.24 bitrate=N/A    frame=  415 fps=6.1 q=24.8 size=N/A time=00:00:08.30 bitrate=N/A    frame=  419 fps=6.1 q=24.8 size=N/A time=00:00:08.38 bitrate=N/A    frame=  422 fps=6.1 q=24.8 size=N/A time=00:00:08.44 bitrate=N/A    frame=  426 fps=6.1 q=24.8 size=N/A time=00:00:08.52 bitrate=N/A    frame=  429 fps=6.1 q=24.8 size=N/A time=00:00:08.58 bitrate=N/A    frame=  432 fps=6.1 q=24.8 size=N/A time=00:00:08.64 bitrate=N/A    frame=  436 fps=6.1 q=24.8 size=N/A time=00:00:08.72 bitrate=N/A    frame=  440 fps=6.1 q=24.8 size=N/A time=00:00:08.80 bitrate=N/A    frame=  444 fps=6.1 q=24.8 size=N/A time=00:00:08.88 bitrate=N/A    frame=  448 fps=6.1 q=24.8 size=N/A time=00:00:08.96 bitrate=N/A    frame=  452 fps=6.2 q=24.8 size=N/A time=00:00:09.04 bitrate=N/A    frame=  456 fps=6.2 q=24.8 size=N/A time=00:00:09.12 bitrate=N/A    frame=  459 fps=6.2 q=24.8 size=N/A time=00:00:09.18 bitrate=N/A    frame=  463 fps=6.2 q=24.8 size=N/A time=00:00:09.26 bitrate=N/A    frame=  467 fps=6.2 q=24.8 size=N/A time=00:00:09.34 bitrate=N/A    frame=  471 fps=6.2 q=24.8 size=N/A time=00:00:09.42 bitrate=N/A    frame=  475 fps=6.2 q=24.8 size=N/A time=00:00:09.50 bitrate=N/A    frame=  479 fps=6.2 q=24.8 size=N/A time=00:00:09.58 bitrate=N/A    frame=  483 fps=6.2 q=24.8 size=N/A time=00:00:09.66 bitrate=N/A    frame=  487 fps=6.2 q=24.8 size=N/A time=00:00:09.74 bitrate=N/A    frame=  491 fps=6.2 q=24.8 size=N/A time=00:00:09.82 bitrate=N/A    frame=  495 fps=6.2 q=24.8 size=N/A time=00:00:09.90 bitrate=N/A    frame=  500 fps=6.2 q=24.8 size=N/A time=00:00:10.00 bitrate=N/A    frame=  505 fps=6.3 q=24.8 size=N/A time=00:00:10.10 bitrate=N/A    frame=  509 fps=6.3 q=24.8 size=N/A time=00:00:10.18 bitrate=N/A    frame=  513 fps=6.3 q=24.8 size=N/A time=00:00:10.26 bitrate=N/A    frame=  517 fps=6.3 q=24.8 size=N/A time=00:00:10.34 bitrate=N/A    frame=  521 fps=6.3 q=24.8 size=N/A time=00:00:10.42 bitrate=N/A    frame=  525 fps=6.3 q=24.8 size=N/A time=00:00:10.50 bitrate=N/A    frame=  529 fps=6.3 q=24.8 size=N/A time=00:00:10.58 bitrate=N/A    frame=  533 fps=6.3 q=24.8 size=N/A time=00:00:10.66 bitrate=N/A    frame=  537 fps=6.3 q=24.8 size=N/A time=00:00:10.74 bitrate=N/A    frame=  541 fps=6.3 q=24.8 size=N/A time=00:00:10.82 bitrate=N/A    frame=  546 fps=6.3 q=24.8 size=N/A time=00:00:10.92 bitrate=N/A    frame=  551 fps=6.3 q=24.8 size=N/A time=00:00:11.02 bitrate=N/A    frame=  555 fps=6.3 q=24.8 size=N/A time=00:00:11.10 bitrate=N/A    frame=  559 fps=6.4 q=24.8 size=N/A time=00:00:11.18 bitrate=N/A    frame=  564 fps=6.4 q=24.8 size=N/A time=00:00:11.28 bitrate=N/A    frame=  569 fps=6.4 q=24.8 size=N/A time=00:00:11.38 bitrate=N/A    frame=  573 fps=6.4 q=24.8 size=N/A time=00:00:11.46 bitrate=N/A    frame=  578 fps=6.4 q=24.8 size=N/A time=00:00:11.56 bitrate=N/A    frame=  583 fps=6.4 q=24.8 size=N/A time=00:00:11.66 bitrate=N/A    frame=  587 fps=6.4 q=24.8 size=N/A time=00:00:11.74 bitrate=N/A    frame=  591 fps=6.4 q=24.8 size=N/A time=00:00:11.82 bitrate=N/A    frame=  595 fps=6.4 q=24.8 size=N/A time=00:00:11.90 bitrate=N/A    frame=  599 fps=6.4 q=24.8 size=N/A time=00:00:11.98 bitrate=N/A    frame=  602 fps=6.4 q=24.8 size=N/A time=00:00:12.04 bitrate=N/A    frame=  607 fps=6.4 q=24.8 size=N/A time=00:00:12.14 bitrate=N/A    frame=  611 fps=6.4 q=24.8 size=N/A time=00:00:12.22 bitrate=N/A    frame=  615 fps=6.4 q=24.8 size=N/A time=00:00:12.30 bitrate=N/A    frame=  619 fps=6.4 q=24.8 size=N/A time=00:00:12.38 bitrate=N/A    frame=  623 fps=6.4 q=24.8 size=N/A time=00:00:12.46 bitrate=N/A    frame=  627 fps=6.4 q=24.8 size=N/A time=00:00:12.54 bitrate=N/A    frame=  631 fps=6.4 q=24.8 size=N/A time=00:00:12.62 bitrate=N/A    frame=  635 fps=6.5 q=24.8 size=N/A time=00:00:12.70 bitrate=N/A    frame=  640 fps=6.5 q=24.8 size=N/A time=00:00:12.80 bitrate=N/A    frame=  644 fps=6.5 q=24.8 size=N/A time=00:00:12.88 bitrate=N/A    frame=  648 fps=6.5 q=24.8 size=N/A time=00:00:12.96 bitrate=N/A    frame=  651 fps=6.5 q=24.8 size=N/A time=00:00:13.02 bitrate=N/A    frame=  655 fps=6.5 q=24.8 size=N/A time=00:00:13.10 bitrate=N/A    frame=  659 fps=6.5 q=24.8 size=N/A time=00:00:13.18 bitrate=N/A    frame=  663 fps=6.5 q=24.8 size=N/A time=00:00:13.26 bitrate=N/A    frame=  667 fps=6.5 q=24.8 size=N/A time=00:00:13.34 bitrate=N/A    frame=  672 fps=6.5 q=24.8 size=N/A time=00:00:13.44 bitrate=N/A    frame=  677 fps=6.5 q=24.8 size=N/A time=00:00:13.54 bitrate=N/A    frame=  681 fps=6.5 q=24.8 size=N/A time=00:00:13.62 bitrate=N/A    frame=  685 fps=6.5 q=24.8 size=N/A time=00:00:13.70 bitrate=N/A    frame=  689 fps=6.5 q=24.8 size=N/A time=00:00:13.78 bitrate=N/A    frame=  693 fps=6.5 q=24.8 size=N/A time=00:00:13.86 bitrate=N/A    frame=  697 fps=6.5 q=24.8 size=N/A time=00:00:13.94 bitrate=N/A    frame=  700 fps=6.5 q=24.8 size=N/A time=00:00:14.00 bitrate=N/A    frame=  704 fps=6.5 q=24.8 size=N/A time=00:00:14.08 bitrate=N/A    frame=  707 fps=6.5 q=24.8 size=N/A time=00:00:14.14 bitrate=N/A    frame=  711 fps=6.5 q=24.8 size=N/A time=00:00:14.22 bitrate=N/A    frame=  715 fps=6.5 q=24.8 size=N/A time=00:00:14.30 bitrate=N/A    frame=  718 fps=6.5 q=24.8 size=N/A time=00:00:14.36 bitrate=N/A    frame=  722 fps=6.5 q=24.8 size=N/A time=00:00:14.44 bitrate=N/A    frame=  726 fps=6.5 q=24.8 size=N/A time=00:00:14.52 bitrate=N/A    frame=  730 fps=6.5 q=24.8 size=N/A time=00:00:14.60 bitrate=N/A    frame=  734 fps=6.5 q=24.8 size=N/A time=00:00:14.68 bitrate=N/A    frame=  738 fps=6.5 q=24.8 size=N/A time=00:00:14.76 bitrate=N/A    frame=  742 fps=6.5 q=24.8 size=N/A time=00:00:14.84 bitrate=N/A    frame=  747 fps=6.5 q=24.8 size=N/A time=00:00:14.94 bitrate=N/A    frame=  751 fps=6.5 q=24.8 size=N/A time=00:00:15.02 bitrate=N/A    frame=  755 fps=6.5 q=24.8 size=N/A time=00:00:15.10 bitrate=N/A    frame=  760 fps=6.5 q=24.8 size=N/A time=00:00:15.20 bitrate=N/A    frame=  764 fps=6.6 q=24.8 size=N/A time=00:00:15.28 bitrate=N/A    frame=  768 fps=6.5 q=24.8 size=N/A time=00:00:15.36 bitrate=N/A    frame=  772 fps=6.6 q=24.8 size=N/A time=00:00:15.44 bitrate=N/A    frame=  776 fps=6.6 q=24.8 size=N/A time=00:00:15.52 bitrate=N/A    frame=  780 fps=6.6 q=24.8 size=N/A time=00:00:15.60 bitrate=N/A    frame=  784 fps=6.6 q=24.8 size=N/A time=00:00:15.68 bitrate=N/A    frame=  789 fps=6.6 q=24.8 size=N/A time=00:00:15.78 bitrate=N/A    frame=  793 fps=6.6 q=24.8 size=N/A time=00:00:15.86 bitrate=N/A    frame=  797 fps=6.6 q=24.8 size=N/A time=00:00:15.94 bitrate=N/A    frame=  801 fps=6.6 q=24.8 size=N/A time=00:00:16.02 bitrate=N/A    frame=  806 fps=6.6 q=24.8 size=N/A time=00:00:16.12 bitrate=N/A    frame=  810 fps=6.6 q=24.8 size=N/A time=00:00:16.20 bitrate=N/A    frame=  815 fps=6.6 q=24.8 size=N/A time=00:00:16.30 bitrate=N/A    frame=  819 fps=6.6 q=24.8 size=N/A time=00:00:16.38 bitrate=N/A    frame=  823 fps=6.6 q=24.8 size=N/A time=00:00:16.46 bitrate=N/A    frame=  827 fps=6.6 q=24.8 size=N/A time=00:00:16.54 bitrate=N/A    frame=  831 fps=6.6 q=24.8 size=N/A time=00:00:16.62 bitrate=N/A    frame=  835 fps=6.6 q=24.8 size=N/A time=00:00:16.70 bitrate=N/A    frame=  838 fps=6.6 q=24.8 size=N/A time=00:00:16.76 bitrate=N/A    frame=  843 fps=6.6 q=24.8 size=N/A time=00:00:16.86 bitrate=N/A    frame=  847 fps=6.6 q=24.8 size=N/A time=00:00:16.94 bitrate=N/A    frame=  850 fps=6.6 q=24.8 size=N/A time=00:00:17.00 bitrate=N/A    frame=  854 fps=6.6 q=24.8 size=N/A time=00:00:17.08 bitrate=N/A    frame=  858 fps=6.6 q=24.8 size=N/A time=00:00:17.16 bitrate=N/A    frame=  861 fps=6.6 q=24.8 size=N/A time=00:00:17.22 bitrate=N/A    frame=  865 fps=6.6 q=24.8 size=N/A time=00:00:17.30 bitrate=N/A    frame=  869 fps=6.6 q=24.8 size=N/A time=00:00:17.38 bitrate=N/A    frame=  870 fps=6.6 q=24.8 Lsize=N/A time=00:00:17.40 bitrate=N/A    
video:635130kB audio:0kB subtitle:0kB other streams:0kB global headers:0kB muxing overhead: unknown
+ turkic load DJI_0680_sok_ragas_vaskut_20180608_napos_napraforgo_T3 /home/horvathandras/vatic/vatic/videos/DJI_0680_sok_ragas_vaskut_20180608_napos_napraforgo_T3 $'Pozit\303\255vROI' $'Negat\303\255vROI' $'T\303\272r\303\241s' '~Friss' '~1-2Hetes' '~Régebbi' '~Egyéb1' '~Egyéb2' '~Egyéb3' $'R\303\241g\303\241s' '~Friss' '~1-2Hetes' '~Régebbi' '~Egyéb1' '~Egyéb2' '~Egyéb3' $'T\303\266r\303\251s' '~Friss' '~1-2Hetes' '~Régebbi' '~Egyéb1' '~Egyéb2' '~Egyéb3' $'Tapos\303\241s' '~Friss' '~1-2Hetes' '~Régebbi' '~Egyéb1' '~Egyéb2' '~Egyéb3' $'Eg\303\251szs\303\251gesN\303\266v\303\251ny' $'Egy\303\251b1' $'Egy\303\251b2' $'Egy\303\251b3' $'Egy\303\251b4' $'Egy\303\251b5' Bizonytalan $'M\305\261vel\305\221\303\272t' $'Gktapos\303\241s' $'Vet\305\221hiba' $'Sz\303\251ld\303\266nt\303\251s' $'J\303\251gk\303\241r' $'Belv\303\255z' $'Asz\303\241ly' $'Er\303\263zi\303\263' $'Egyszik\305\261Gyom' $'K\303\251tszik\305\261Gyom' $'Egy\303\251bN\303\266vv\303\251delmiPR' --offline --title '$filenameNoDot Video' --length 1000 --description 'vatic annotation'
+ turkic publish --offline
+ mkdir /home/horvathandras/vatic/vatic/public/videothumbnails/DJI_0680_sok_ragas_vaskut_20180608_napos_napraforgo_T3
+ cp /home/horvathandras/vatic/vatic/videos/DJI_0680_sok_ragas_vaskut_20180608_napos_napraforgo_T3/0/0/31.jpg /home/horvathandras/vatic/vatic/public/videothumbnails/DJI_0680_sok_ragas_vaskut_20180608_napos_napraforgo_T3/thumb.jpg
